<svg width="5" height="8" viewBox="0 0 5 8" fill="none" xmlns="http://www.w3.org/2000/svg">
<path d="M4.72852 1.71045V0.442383C4.72852 0.189453 4.5166 0.0151367 4.27051 0.0698242L2.5 0.456055C2.22656 0.51416 2.07617 0.671387 2.07617 0.914062L2.07959 4.66699C2.08643 4.79004 2.03516 4.8584 1.93604 4.87891L1.38232 4.99512C0.640625 5.14551 0.268066 5.53857 0.268066 6.12988C0.268066 6.73145 0.719238 7.1416 1.36523 7.1416C2.04883 7.1416 2.74951 6.62207 2.74951 5.68555V2.54785C2.74951 2.41797 2.74268 2.42139 2.86572 2.39404L4.45508 2.04541C4.61914 2.01123 4.72852 1.87793 4.72852 1.71045Z" fill="#FF293F"/>
</svg>
