<svg width="12" height="16" viewBox="0 0 12 16" fill="none" xmlns="http://www.w3.org/2000/svg">
<path d="M3.09424 1.79004H9.25146C9.21338 1.25684 8.90869 0.971191 8.32471 0.971191H4.021C3.43701 0.971191 3.13232 1.25684 3.09424 1.79004ZM1.96436 3.54834H10.3242C10.229 2.97705 9.95605 2.65332 9.32129 2.65332H2.97363C2.33252 2.65332 2.05957 2.97705 1.96436 3.54834ZM2.61182 15.8247H10.064C11.2002 15.8247 11.8667 15.1646 11.8667 13.8569V6.54443C11.8667 5.23682 11.1938 4.57666 9.87354 4.57666H2.61182C1.28516 4.57666 0.618652 5.23047 0.618652 6.54443V13.8569C0.618652 15.1646 1.28516 15.8247 2.61182 15.8247ZM2.62451 14.8027C1.98975 14.8027 1.64062 14.46 1.64062 13.7998V6.59521C1.64062 5.93506 1.98975 5.59863 2.62451 5.59863H9.85449C10.4829 5.59863 10.8447 5.93506 10.8447 6.59521V13.7998C10.8447 14.46 10.4829 14.8027 10.0449 14.8027H2.62451Z" fill="#FF293F"/>
<path d="M4.72852 1.71045V0.442383C4.72852 0.189453 4.5166 0.0151367 4.27051 0.0698242L2.5 0.456055C2.22656 0.51416 2.07617 0.671387 2.07617 0.914062L2.07959 4.66699C2.08643 4.79004 2.03516 4.8584 1.93604 4.87891L1.38232 4.99512C0.640625 5.14551 0.268066 5.53857 0.268066 6.12988C0.268066 6.73145 0.719238 7.1416 1.36523 7.1416C2.04883 7.1416 2.74951 6.62207 2.74951 5.68555V2.54785C2.74951 2.41797 2.74268 2.42139 2.86572 2.39404L4.45508 2.04541C4.61914 2.01123 4.72852 1.87793 4.72852 1.71045Z" fill="#FF293F"/>
</svg>
