<svg xmlns="http://www.w3.org/2000/svg" xmlns:xlink="http://www.w3.org/1999/xlink" viewBox="0,0,256,256" width="16px" height="16px"><g fill="#ff293f" fill-rule="nonzero" stroke="none" stroke-width="1" stroke-linecap="butt" stroke-linejoin="miter" stroke-miterlimit="10" stroke-dasharray="" stroke-dashoffset="0" font-family="none" font-weight="none" font-size="none" text-anchor="none" style="mix-blend-mode: normal"><g transform="scale(8.53333,8.53333)"><path d="M4,5c-1.105,0 -2,0.895 -2,2v16c0,1.105 0.895,2 2,2h8c1.105,0 2,0.895 2,2v-20c0,-1.105 -0.895,-2 -2,-2zM18,5c-1.105,0 -2,0.895 -2,2v20c0,-1.105 0.895,-2 2,-2h8c1.105,0 2,-0.895 2,-2v-16c0,-1.105 -0.895,-2 -2,-2z"></path></g></g></svg>