<svg xmlns="http://www.w3.org/2000/svg" xmlns:xlink="http://www.w3.org/1999/xlink" viewBox="0,0,256,256" width="16px" height="16px"><g fill="#ff293f" fill-rule="nonzero" stroke="none" stroke-width="1" stroke-linecap="butt" stroke-linejoin="miter" stroke-miterlimit="10" stroke-dasharray="" stroke-dashoffset="0" font-family="none" font-weight="none" font-size="none" text-anchor="none" style="mix-blend-mode: normal"><g transform="scale(8,8)"><path d="M16,4c-6.62891,0 -12,5.37109 -12,12c0,6.62891 5.37109,12 12,12c6.62891,0 12,-5.37109 12,-12c0,-6.62891 -5.37109,-12 -12,-12zM16,6c5.55469,0 10,4.44531 10,10c0,5.55469 -4.44531,10 -10,10c-5.55469,0 -10,-4.44531 -10,-10c0,-5.55469 4.44531,-10 10,-10zM14.40625,10.75c-1.94531,0 -3.64062,0.17969 -5.25,0.6875c-0.42578,0.08594 -0.78125,0.40625 -0.78125,1c0,0.59375 0.4375,1.11719 1.03125,1.03125c0.25391,0 0.42578,-0.09375 0.59375,-0.09375c1.35547,-0.33984 2.88281,-0.5 4.40625,-0.5c2.96094,0 6,0.66016 8.03125,1.84375c0.25391,0.08594 0.33984,0.1875 0.59375,0.1875c0.59375,0 1.00781,-0.4375 1.09375,-1.03125c0,-0.50781 -0.25391,-0.83203 -0.59375,-1c-2.53906,-1.4375 -5.91016,-2.125 -9.125,-2.125zM14.125,14.46875c-1.77734,0 -3.04297,0.25391 -4.3125,0.59375c-0.42187,0.16797 -0.65625,0.42969 -0.65625,0.9375c0,0.42188 0.33594,0.84375 0.84375,0.84375c0.17188,0 0.24609,-0.00781 0.5,-0.09375c0.92969,-0.25391 2.20703,-0.40625 3.5625,-0.40625c2.79297,0 5.22266,0.67969 7,1.78125c0.16797,0.08594 0.33984,0.15625 0.59375,0.15625c0.50781,0 0.84375,-0.42969 0.84375,-0.9375c0,-0.33984 -0.16016,-0.67578 -0.5,-0.84375c-2.19922,-1.35547 -4.99609,-2.03125 -7.875,-2.03125zM14.40625,18.125c-1.4375,0 -2.80078,0.16016 -4.15625,0.5c-0.33984,0.08594 -0.59375,0.32813 -0.59375,0.75c0,0.33984 0.26563,0.6875 0.6875,0.6875c0.08594,0 0.33203,-0.09375 0.5,-0.09375c1.10156,-0.25391 2.28516,-0.40625 3.46875,-0.40625c2.11328,0 4.04688,0.50781 5.65625,1.4375c0.17188,0.08594 0.36328,0.15625 0.53125,0.15625c0.33984,0 0.66406,-0.25391 0.75,-0.59375c0,-0.42578 -0.18359,-0.58203 -0.4375,-0.75c-1.86328,-1.10156 -4.03906,-1.6875 -6.40625,-1.6875z"></path></g></g></svg>