<svg width="17" height="12" viewBox="0 0 17 12" fill="none" xmlns="http://www.w3.org/2000/svg">
<path d="M14.2285 11.3477C14.4277 11.4941 14.7148 11.4355 14.873 11.2012C15.8984 9.71875 16.5137 7.83789 16.5137 5.76953C16.5137 3.69531 15.8809 1.82617 14.873 0.337891C14.7148 0.0976562 14.4277 0.0449219 14.2285 0.191406C14.0059 0.34375 13.9766 0.619141 14.1348 0.859375C15.043 2.20117 15.6172 3.88867 15.6172 5.76953C15.6172 7.64453 15.043 9.34375 14.1348 10.6797C13.9766 10.9199 14.0059 11.1953 14.2285 11.3477ZM7.10352 10.9434C7.49023 10.9434 7.76562 10.668 7.76562 10.2871V1.29883C7.76562 0.917969 7.49023 0.607422 7.0918 0.607422C6.81641 0.607422 6.62891 0.724609 6.33594 1.01172L3.83398 3.35547C3.79883 3.39062 3.74609 3.4082 3.6875 3.4082H2.01172C1.21484 3.4082 0.787109 3.84766 0.787109 4.69141V6.87109C0.787109 7.7207 1.21484 8.1543 2.01172 8.1543H3.6875C3.74609 8.1543 3.79883 8.17188 3.83398 8.20703L6.33594 10.5742C6.59961 10.832 6.82812 10.9434 7.10352 10.9434ZM12.0312 9.79492C12.248 9.94141 12.5176 9.88867 12.6758 9.66602C13.4258 8.63477 13.8652 7.2168 13.8652 5.76953C13.8652 4.32227 13.4316 2.89258 12.6758 1.87305C12.5176 1.65039 12.248 1.59766 12.0312 1.74414C11.8145 1.89062 11.7793 2.16602 11.9492 2.40625C12.5879 3.30859 12.957 4.52148 12.957 5.76953C12.957 7.01758 12.5762 8.21875 11.9492 9.13281C11.7852 9.37305 11.8145 9.64844 12.0312 9.79492ZM9.85742 8.26562C10.0508 8.40039 10.3262 8.35938 10.4844 8.13086C10.9355 7.53906 11.2051 6.66602 11.2051 5.76953C11.2051 4.87305 10.9355 4.00586 10.4844 3.4082C10.3262 3.17969 10.0508 3.13281 9.85742 3.27344C9.61719 3.4375 9.58203 3.73047 9.76367 3.9707C10.1035 4.43945 10.2969 5.08984 10.2969 5.76953C10.2969 6.44922 10.0977 7.09375 9.76367 7.56836C9.58789 7.81445 9.61719 8.0957 9.85742 8.26562Z" fill="#BFBFBF"/>
</svg>
