<svg width="8" height="11" viewBox="0 0 8 11" fill="none" xmlns="http://www.w3.org/2000/svg">
<path d="M7.10352 10.9434C7.49023 10.9434 7.76562 10.668 7.76562 10.2871V1.29883C7.76562 0.917969 7.49023 0.607422 7.0918 0.607422C6.82227 0.607422 6.63477 0.724609 6.33594 1.01172L3.83984 3.35547C3.79883 3.39062 3.75195 3.4082 3.69336 3.4082H2.01172C1.2207 3.4082 0.787109 3.84766 0.787109 4.69141V6.87109C0.787109 7.7207 1.2207 8.1543 2.01172 8.1543H3.69336C3.75195 8.1543 3.79883 8.17188 3.83984 8.20703L6.33594 10.5742C6.60547 10.832 6.83398 10.9434 7.10352 10.9434Z" fill="#BFBFBF"/>
</svg>
