<svg width="24" height="14" viewBox="0 0 24 14" fill="none" xmlns="http://www.w3.org/2000/svg">
<path d="M1.50781 13.8672C1.89844 13.8672 2.25 13.7656 2.625 13.5469L10.7109 8.8125C11.2422 8.5 11.6172 8.125 11.7344 7.63281V12.1562C11.7344 13.25 12.4297 13.8672 13.25 13.8672C13.6406 13.8672 13.9922 13.7656 14.3672 13.5469L22.4531 8.8125C23.1016 8.4375 23.5156 7.96094 23.5156 7.28906C23.5156 6.625 23.1172 6.17969 22.4531 5.79688L14.3672 1.0625C13.9844 0.84375 13.6328 0.742188 13.2344 0.742188C12.4219 0.742188 11.7344 1.35156 11.7344 2.45312V6.94531C11.6172 6.46094 11.25 6.10938 10.7109 5.79688L2.625 1.0625C2.24219 0.84375 1.89062 0.742188 1.5 0.742188C0.679688 0.742188 -0.0078125 1.35156 -0.0078125 2.45312V12.1562C-0.0078125 13.25 0.6875 13.8672 1.50781 13.8672Z" fill="#808080"/>
</svg>
