<svg width="51" height="60" viewBox="0 0 51 60" fill="none" xmlns="http://www.w3.org/2000/svg">
<path d="M42.6386 31.7079C42.6094 26.7898 44.8639 23.0832 49.4167 20.3502C46.8704 16.7445 43.018 14.7614 37.9399 14.3792C33.1318 14.0043 27.8712 17.1484 25.9451 17.1484C23.9094 17.1484 19.2545 14.5091 15.5918 14.5091C8.03305 14.6244 0 20.4655 0 32.3497C0 35.8616 0.649356 39.4888 1.94807 43.2243C3.68455 48.1424 9.94463 60.1924 16.4747 59.9977C19.8893 59.9183 22.3043 57.6035 26.7476 57.6035C31.0597 57.6035 33.2923 59.9977 37.1009 59.9977C43.6893 59.9039 49.3511 48.95 51 44.0175C42.1644 39.8999 42.6386 31.9603 42.6386 31.7079ZM34.9704 9.71356C38.6695 5.37239 38.3339 1.42062 38.2245 0C34.9558 0.187493 31.1764 2.19943 29.024 4.6729C26.6528 7.32664 25.2592 10.6078 25.5584 14.3071C29.0897 14.574 32.3146 12.7783 34.9704 9.71356Z" fill="#211D27"/>
</svg>
